{"glyphs":{"0":{"ha":450,"x_min":0,"x_max":0,"o":"m 31 457 b 225 -11 31 147 58 -11 b 418 456 364 -11 418 93 b 386 807 418 519 418 708 b 224 938 371 857 332 938 b 31 457 47 938 31 735 z m 168 474 b 176 760 168 560 168 704 b 224 829 181 792 189 829 b 272 760 260 829 268 789 b 281 494 281 703 281 560 b 274 175 281 418 281 233 b 224 103 268 132 258 103 b 175 175 185 103 178 147 b 168 474 168 236 168 406 z "},"1":{"ha":450,"x_min":0,"x_max":0,"o":"m 399 0 l 399 104 l 300 104 l 300 936 l 207 936 b 82 788 182 876 138 821 l 82 656 b 179 729 125 674 163 706 l 179 104 l 81 104 l 81 0 z "},"2":{"ha":450,"x_min":0,"x_max":0,"o":"m 392 0 l 392 115 l 153 115 b 396 681 240 215 396 474 b 368 832 396 719 389 781 b 204 938 351 869 317 938 b 18 697 22 938 19 760 l 144 689 b 200 821 146 761 147 821 b 257 667 239 821 257 785 b 194 401 257 611 251 533 b 28 111 157 313 92 196 l 28 0 z "},"3":{"ha":450,"x_min":0,"x_max":0,"o":"m 6 186 b 40 72 11 125 31 89 b 199 -11 54 49 92 -11 b 401 254 367 -11 401 133 b 339 460 401 306 394 403 b 288 489 322 478 297 486 b 382 701 365 519 382 614 b 206 938 382 869 318 938 b 26 756 90 938 40 861 l 151 738 b 200 829 154 782 164 829 b 246 693 233 829 246 807 b 151 539 246 550 204 539 l 128 539 l 128 424 l 151 424 b 263 249 249 424 263 357 b 199 99 263 113 233 99 b 128 214 140 99 132 171 z "},"4":{"ha":450,"x_min":0,"x_max":0,"o":"m 346 0 l 346 217 l 411 217 l 411 322 l 346 322 l 346 936 l 225 936 l 18 333 l 18 217 l 228 217 l 228 0 z m 108 322 l 235 708 l 235 322 z "},"5":{"ha":450,"x_min":0,"x_max":0,"o":"m 44 188 b 224 -11 51 92 90 -11 b 421 313 388 -11 421 165 b 264 626 421 433 401 626 b 175 572 238 626 199 618 l 190 819 l 381 819 l 386 926 l 81 926 l 61 425 l 172 408 b 222 511 174 451 181 511 b 271 457 243 511 263 501 b 283 304 279 418 283 375 b 225 106 283 106 250 106 b 175 207 181 106 178 157 z "},"6":{"ha":450,"x_min":0,"x_max":0,"o":"m 407 750 b 246 938 406 772 396 938 b 49 435 79 938 49 774 b 81 121 49 336 56 211 b 238 -11 101 50 136 -11 b 428 306 372 -11 428 107 b 267 607 428 417 407 607 b 183 553 236 607 204 594 b 185 711 182 586 183 674 b 240 836 188 790 201 836 b 290 731 285 836 288 788 z m 188 297 b 196 457 188 393 192 429 b 242 506 199 467 207 506 b 286 451 272 506 282 476 b 294 307 289 433 294 397 b 288 143 294 253 294 182 b 242 89 283 117 275 89 b 196 143 210 89 201 114 b 188 297 189 181 188 256 z "},"7":{"ha":450,"x_min":0,"x_max":0,"o":"m 254 0 b 247 125 251 22 247 51 b 404 835 247 450 343 728 l 404 926 l 60 926 l 50 810 l 292 810 b 108 83 158 596 108 293 b 111 0 108 40 110 19 z "},"8":{"ha":450,"x_min":0,"x_max":0,"o":"m 133 476 b 28 215 107 453 28 381 b 221 -11 28 76 92 -11 b 421 233 350 -11 421 78 b 304 510 421 382 358 451 b 400 746 351 558 400 646 b 226 938 400 872 325 938 b 50 715 149 938 50 889 b 133 476 50 572 107 507 z m 233 563 b 174 724 174 625 174 700 b 231 833 174 744 174 833 b 289 721 285 833 289 753 b 233 563 289 651 261 597 z m 203 414 b 288 219 283 340 288 256 b 219 89 288 168 279 89 b 151 231 158 89 151 176 b 168 356 151 272 156 315 b 203 414 175 379 186 397 z "},"9":{"ha":450,"x_min":0,"x_max":0,"o":"m 36 175 b 207 -11 46 49 106 -11 b 406 492 351 -11 406 96 b 214 938 406 813 353 938 b 26 621 28 938 26 686 b 183 325 26 560 28 325 b 278 396 253 325 271 376 b 269 182 278 361 278 244 b 213 89 265 142 257 89 b 160 192 167 89 161 149 z m 158 626 b 169 794 158 732 161 763 b 214 835 174 810 188 835 b 256 794 246 835 254 801 b 267 611 264 758 267 713 b 254 454 267 586 267 494 b 213 422 249 438 235 422 b 167 472 181 422 171 453 b 158 626 161 503 158 551 z "}," ":{"ha":225,"x_min":0,"x_max":0,"o":""},"!":{"ha":283,"x_min":0,"x_max":0,"o":"m 215 0 l 215 158 l 72 158 l 72 0 z m 193 244 l 215 926 l 69 926 l 92 244 z "},"\"":{"ha":450,"x_min":0,"x_max":0,"o":"m 179 514 l 190 926 l 71 926 l 83 514 z m 368 514 l 379 926 l 260 926 l 272 514 z "},"#":{"ha":450,"x_min":0,"x_max":0,"o":"m 301 0 l 332 288 l 401 288 l 408 379 l 342 379 l 363 569 l 432 569 l 439 660 l 372 660 l 401 925 l 307 925 l 278 660 l 207 660 l 236 925 l 143 925 l 114 660 l 49 660 l 42 569 l 104 569 l 83 379 l 18 379 l 11 288 l 74 288 l 42 0 l 136 0 l 167 288 l 238 288 l 207 0 z m 174 379 l 194 569 l 272 569 l 251 379 z "},"$":{"ha":450,"x_min":0,"x_max":0,"o":"m 267 -93 l 267 24 b 408 253 404 40 408 201 b 269 528 408 408 336 472 b 179 690 204 582 179 614 b 229 810 179 782 196 810 b 276 719 257 810 271 790 l 393 740 b 267 913 389 789 368 903 l 267 1000 l 183 1000 l 183 911 b 50 690 74 897 50 786 b 189 424 50 529 140 460 b 278 244 244 381 278 349 b 222 132 278 157 257 132 b 160 251 174 132 160 186 l 42 226 b 85 78 43 168 57 115 b 182 24 111 39 147 28 l 182 -93 z "},"%":{"ha":781,"x_min":0,"x_max":0,"o":"m 29 646 b 165 364 29 467 46 364 b 303 649 269 364 303 436 b 165 933 303 814 289 933 b 29 646 39 933 29 804 z m 132 654 b 138 824 132 696 132 789 b 165 860 142 844 147 860 b 194 825 186 860 192 843 b 200 668 200 788 200 701 b 196 479 200 622 200 514 b 167 440 192 453 185 440 b 136 479 146 440 140 454 b 132 654 132 514 132 615 z m 551 925 l 483 925 l 226 0 l 294 0 z m 479 274 b 615 -7 479 94 496 -7 b 751 274 717 -7 751 64 b 615 563 751 439 739 563 b 479 274 489 563 479 432 z m 582 283 b 588 451 582 324 582 418 b 615 489 590 472 596 489 b 643 454 635 489 640 471 b 649 294 649 417 649 322 b 644 108 649 256 649 142 b 615 69 640 82 633 69 b 586 108 596 69 590 82 b 582 283 582 142 582 244 z "},"&":{"ha":474,"x_min":0,"x_max":0,"o":"m 486 115 b 475 113 483 114 481 113 b 418 176 450 113 432 142 b 475 443 453 261 468 335 l 374 456 b 358 303 374 440 368 347 l 258 524 b 368 757 346 621 368 690 b 210 942 368 875 299 942 b 54 756 106 942 54 842 b 128 542 54 685 83 629 b 14 244 68 458 14 383 b 213 -11 14 121 64 -11 b 346 51 289 -11 325 28 b 442 -10 369 18 394 -10 b 486 0 461 -10 472 -7 z m 172 758 b 218 835 172 808 193 835 b 264 758 242 835 264 813 b 213 622 264 689 231 646 b 172 758 203 642 172 701 z m 303 150 b 224 103 276 106 235 103 b 143 250 160 103 143 185 b 179 428 143 271 143 351 z "},"’":{"ha":260,"x_min":0,"x_max":0,"o":"m 140 610 l 197 781 l 197 926 l 63 926 l 63 772 l 117 772 l 76 611 z "},"(":{"ha":283,"x_min":0,"x_max":0,"o":"m 275 -176 b 183 406 214 36 183 264 b 272 981 183 599 235 854 l 174 981 b 53 404 81 769 53 572 b 176 -176 53 76 167 -158 z "},")":{"ha":283,"x_min":0,"x_max":0,"o":"m 107 -176 b 231 404 125 -140 231 88 b 110 981 231 547 214 739 l 11 981 b 100 406 49 857 100 597 b 8 -176 100 238 58 -7 z "},"*":{"ha":426,"x_min":0,"x_max":0,"o":"m 265 536 l 244 679 l 344 594 l 397 685 l 275 735 l 396 788 l 343 876 l 249 789 l 264 932 l 161 932 l 186 785 l 82 878 l 29 788 l 157 735 l 31 685 l 82 594 l 182 679 l 163 536 z "},"+":{"ha":450,"x_min":0,"x_max":0,"o":"m 268 179 l 268 419 l 401 419 l 401 507 l 268 507 l 268 747 l 181 747 l 181 507 l 47 507 l 47 419 l 181 419 l 181 179 z "},",":{"ha":260,"x_min":0,"x_max":0,"o":"m 131 -175 l 199 13 l 199 164 l 63 164 l 63 0 l 115 0 l 71 -175 z "},"-":{"ha":308,"x_min":0,"x_max":0,"o":"m 263 304 l 263 415 l 44 415 l 44 304 z "},".":{"ha":260,"x_min":0,"x_max":0,"o":"m 204 0 l 204 168 l 57 168 l 57 0 z "},"/":{"ha":356,"x_min":0,"x_max":0,"o":"m 54 -232 l 343 925 l 251 925 l -36 -232 z "},":":{"ha":260,"x_min":0,"x_max":0,"o":"m 200 0 l 200 164 l 61 164 l 61 0 z m 199 519 l 199 685 l 61 685 l 60 519 z "},";":{"ha":260,"x_min":0,"x_max":0,"o":"m 131 -175 l 199 13 l 199 164 l 63 164 l 63 0 l 115 0 l 71 -175 z m 197 519 l 197 685 l 61 685 l 61 519 z "},"<":{"ha":450,"x_min":0,"x_max":0,"o":"m 432 767 l 18 519 l 18 418 l 432 171 l 432 289 l 118 469 l 432 649 z "},"=":{"ha":450,"x_min":0,"x_max":0,"o":"m 417 503 l 417 590 l 33 590 l 33 503 z m 417 335 l 417 422 l 33 422 l 33 335 z "},">":{"ha":450,"x_min":0,"x_max":0,"o":"m 18 767 l 18 649 l 332 469 l 18 289 l 18 171 l 432 418 l 432 519 z "},"?":{"ha":426,"x_min":0,"x_max":0,"o":"m 258 0 l 258 151 l 124 151 l 124 0 z m 247 244 l 247 335 b 300 461 247 403 254 413 b 386 714 386 556 386 679 b 213 936 386 822 351 936 b 31 701 47 936 33 782 l 150 689 b 207 826 153 810 178 826 b 253 706 253 826 253 772 b 196 532 253 614 244 589 b 129 329 136 463 129 440 l 129 244 z "},"@":{"ha":639,"x_min":0,"x_max":0,"o":"m 504 110 b 347 44 482 86 429 44 b 129 458 192 44 129 190 b 340 879 129 726 214 879 b 472 790 397 879 444 840 b 518 514 514 715 518 575 b 460 275 518 300 476 275 b 439 310 439 275 439 301 b 442 401 439 324 440 375 l 464 703 l 397 703 l 386 668 b 325 707 382 678 368 707 b 188 396 208 707 188 536 b 300 204 188 346 189 204 b 389 265 343 204 376 231 b 453 207 392 247 400 207 b 613 538 613 207 613 503 b 554 836 613 611 601 747 b 339 965 511 918 439 965 b 260 954 317 965 289 963 b 33 456 42 886 33 585 b 336 -40 33 218 79 -40 b 546 39 382 -40 465 -32 z m 282 369 b 300 571 282 421 290 519 b 343 635 304 594 315 635 b 368 597 360 635 368 618 b 357 417 368 554 361 476 b 315 281 349 290 336 281 b 282 369 285 281 282 319 z "},"A":{"ha":426,"x_min":0,"x_max":0,"o":"m 426 0 l 279 926 l 143 926 l 0 0 l 124 0 l 153 256 l 264 256 l 296 0 z m 163 368 l 181 532 b 196 693 186 594 188 604 b 203 786 200 736 201 760 b 231 533 206 760 225 578 l 251 368 z "},"B":{"ha":450,"x_min":0,"x_max":0,"o":"m 61 0 l 186 0 b 431 263 331 0 431 47 b 303 493 431 331 417 467 b 406 697 406 514 406 663 b 186 926 406 926 257 926 l 61 926 z m 193 819 l 213 819 b 279 685 244 819 279 813 b 213 542 279 581 267 542 l 193 542 z m 193 436 l 217 436 b 292 271 251 436 292 431 b 217 110 292 150 281 110 l 193 110 z "},"C":{"ha":426,"x_min":0,"x_max":0,"o":"m 307 226 b 250 106 299 151 292 106 b 203 151 217 106 206 138 b 183 460 183 222 183 375 b 193 729 183 553 183 660 b 246 821 199 779 208 821 b 307 689 285 821 300 779 l 436 706 b 249 938 421 865 357 938 b 38 468 89 938 38 796 b 250 -11 38 138 86 -11 b 436 210 396 -11 425 124 z "},"D":{"ha":497,"x_min":0,"x_max":0,"o":"m 61 0 l 215 0 b 458 463 350 0 458 42 b 396 828 458 565 453 742 b 193 926 335 924 263 926 l 61 926 z m 200 808 b 300 704 243 808 281 808 b 314 449 314 626 314 496 b 288 169 314 404 313 233 b 200 118 267 118 242 118 z "},"E":{"ha":403,"x_min":0,"x_max":0,"o":"m 389 0 l 389 118 l 200 118 l 200 426 l 328 426 l 328 544 l 200 544 l 200 808 l 376 808 l 376 926 l 61 926 l 61 0 z "},"F":{"ha":379,"x_min":0,"x_max":0,"o":"m 200 0 l 200 422 l 338 422 l 338 540 l 200 540 l 200 808 l 371 808 l 371 926 l 61 926 l 61 0 z "},"G":{"ha":497,"x_min":0,"x_max":0,"o":"m 450 -6 l 450 467 l 256 467 l 256 343 l 321 343 l 321 283 b 254 101 321 164 311 101 b 190 196 204 101 196 160 b 182 475 183 257 182 406 b 190 735 182 540 182 675 b 250 819 196 778 206 819 b 314 694 282 819 306 794 l 450 713 b 251 938 435 817 400 938 b 38 465 46 938 38 717 b 231 -8 38 160 74 -8 b 347 68 303 -8 332 31 l 360 -6 z "},"H":{"ha":521,"x_min":0,"x_max":0,"o":"m 460 0 l 460 926 l 321 926 l 321 536 l 200 536 l 200 926 l 61 926 l 61 0 l 200 0 l 200 411 l 321 411 l 321 0 z "},"I":{"ha":260,"x_min":0,"x_max":0,"o":"m 200 0 l 200 926 l 61 926 l 61 0 z "},"J":{"ha":308,"x_min":0,"x_max":0,"o":"m -8 3 b 67 -7 22 -7 56 -7 b 256 239 256 -7 256 163 l 256 926 l 117 926 l 117 233 b 40 114 117 139 106 114 b -8 118 24 114 18 114 z "},"K":{"ha":450,"x_min":0,"x_max":0,"o":"m 464 0 l 282 532 l 451 926 l 319 926 l 196 585 l 196 926 l 61 926 l 61 0 l 196 0 l 196 435 l 321 0 z "},"L":{"ha":356,"x_min":0,"x_max":0,"o":"m 374 0 l 374 118 l 200 118 l 200 926 l 61 926 l 61 0 z "},"M":{"ha":639,"x_min":0,"x_max":0,"o":"m 576 0 l 576 926 l 422 926 l 349 440 b 318 178 331 331 322 269 b 289 440 308 285 300 378 l 213 926 l 63 926 l 63 0 l 171 0 l 171 354 b 164 688 171 399 168 506 b 208 358 176 561 176 560 l 265 0 l 368 0 l 422 350 b 468 688 436 446 465 671 b 464 350 467 550 464 397 l 464 0 z "},"N":{"ha":521,"x_min":0,"x_max":0,"o":"m 460 0 l 460 926 l 347 926 l 347 597 b 360 267 347 496 353 376 b 296 510 339 356 328 397 l 178 926 l 61 926 l 61 0 l 175 0 l 175 299 b 164 643 175 357 168 538 b 224 410 190 517 219 424 l 347 0 z "},"O":{"ha":497,"x_min":0,"x_max":0,"o":"m 38 463 b 247 -11 38 190 60 -11 b 458 463 394 -11 458 104 b 247 938 458 821 394 938 b 38 463 56 938 38 725 z m 186 463 b 197 767 186 468 186 708 b 247 822 203 796 213 822 b 303 728 283 822 300 796 b 310 439 308 629 310 571 b 297 160 310 422 310 222 b 247 104 292 132 282 104 b 197 160 213 104 203 133 b 186 463 186 222 186 390 z "},"P":{"ha":450,"x_min":0,"x_max":0,"o":"m 200 0 l 200 369 l 243 369 b 442 649 371 369 442 444 b 376 874 442 754 418 825 b 217 926 331 926 275 926 l 61 926 l 61 0 z m 200 808 l 228 808 b 296 656 267 808 296 808 b 228 496 296 508 281 496 l 200 496 z "},"Q":{"ha":497,"x_min":0,"x_max":0,"o":"m 410 -92 b 356 -103 393 -97 379 -103 b 300 -49 300 -103 300 -64 b 304 -4 300 -26 303 -14 b 406 85 326 1 372 19 b 458 464 457 183 458 413 b 247 938 458 822 394 938 b 38 469 60 938 38 735 b 194 -4 38 189 64 29 b 190 -57 192 -35 190 -42 b 233 -175 190 -122 213 -156 b 335 -212 260 -200 301 -212 b 410 -196 353 -212 376 -212 z m 186 463 b 197 767 186 467 186 708 b 247 822 203 796 213 822 b 303 728 283 822 299 796 b 310 439 308 629 310 571 b 297 160 310 421 310 222 b 247 104 292 132 282 104 b 197 160 213 104 201 133 b 186 463 186 222 186 390 z "},"R":{"ha":474,"x_min":0,"x_max":0,"o":"m 467 0 l 350 432 b 435 660 381 450 435 483 b 382 861 435 769 411 822 b 222 926 339 918 279 926 l 61 926 l 61 0 l 200 0 l 200 399 l 233 399 l 324 0 z m 200 808 l 222 808 b 289 668 258 808 289 808 b 222 519 289 544 274 519 l 200 519 z "},"S":{"ha":426,"x_min":0,"x_max":0,"o":"m 21 213 b 210 -11 21 124 49 -11 b 406 261 381 -11 406 146 b 261 547 406 408 343 476 b 169 710 185 611 169 643 b 213 821 169 778 179 821 b 261 718 232 821 251 821 l 390 735 b 211 938 383 828 344 938 b 32 697 81 938 32 826 b 147 444 32 554 113 474 b 268 236 235 371 268 342 b 208 104 268 143 249 104 b 150 226 154 104 151 168 z "},"T":{"ha":308,"x_min":0,"x_max":0,"o":"m 224 0 l 224 808 l 325 808 l 325 926 l -18 926 l -18 808 l 85 808 l 85 0 z "},"U":{"ha":497,"x_min":0,"x_max":0,"o":"m 61 926 l 61 242 b 250 -11 61 131 64 -11 b 436 242 436 -11 436 146 l 436 926 l 299 926 l 299 229 b 247 114 299 154 299 114 b 197 229 199 114 199 149 l 197 926 z "},"V":{"ha":426,"x_min":0,"x_max":0,"o":"m 279 0 l 421 926 l 292 926 l 250 582 b 219 275 238 481 226 378 b 188 581 211 376 200 478 l 144 926 l 6 926 l 153 0 z "},"W":{"ha":615,"x_min":0,"x_max":0,"o":"m 501 0 l 608 926 l 490 926 l 456 486 b 449 353 454 457 453 453 b 447 263 447 293 447 286 b 428 486 443 307 433 443 l 369 926 l 254 926 l 207 488 b 192 272 200 436 194 353 b 176 490 189 303 181 456 l 133 926 l 7 926 l 126 0 l 238 0 l 296 486 b 311 679 303 546 310 643 b 331 482 317 617 324 533 l 394 0 z "},"X":{"ha":379,"x_min":0,"x_max":0,"o":"m 394 0 l 257 493 l 382 926 l 257 926 l 194 638 l 135 926 l 0 926 l 124 478 l -15 0 l 111 0 l 186 322 l 257 0 z "},"Y":{"ha":403,"x_min":0,"x_max":0,"o":"m 268 0 l 268 392 l 414 926 l 282 926 l 244 739 b 208 496 239 715 215 581 b 168 732 204 568 186 649 l 126 926 l -11 926 l 129 389 l 129 0 z "},"Z":{"ha":354,"x_min":0,"x_max":0,"o":"m 347 0 l 347 118 l 136 118 l 340 832 l 340 926 l 18 926 l 18 808 l 207 808 l 7 125 l 7 0 z "},"[":{"ha":283,"x_min":0,"x_max":0,"o":"m 261 -176 l 261 -79 l 189 -79 l 189 883 l 260 883 l 260 981 l 69 981 l 69 -176 z "},"\\":{"ha":356,"x_min":0,"x_max":0,"o":"m 343 -232 l 56 925 l -36 925 l 253 -232 z "},"]":{"ha":283,"x_min":0,"x_max":0,"o":"m 215 -176 l 215 981 l 25 981 l 25 883 l 96 883 l 96 -79 l 24 -79 l 24 -176 z "},"^":{"ha":450,"x_min":0,"x_max":0,"o":"m 450 429 l 264 926 l 188 926 l 0 429 l 96 429 l 225 771 l 353 429 z "},"_":{"ha":694,"x_min":0,"x_max":0,"o":"m 0 -174 l 694 -174 l 694 -104 l 0 -104 z "},"‘":{"ha":260,"x_min":0,"x_max":0,"o":"m 197 608 l 197 763 l 143 763 l 183 925 l 119 926 l 63 754 l 63 608 z "},"a":{"ha":379,"x_min":0,"x_max":0,"o":"m 333 474 b 310 621 333 524 333 578 b 186 694 297 643 264 694 b 31 517 82 694 40 608 l 136 506 b 181 594 140 556 143 594 b 221 474 218 594 221 546 l 221 422 b 164 438 199 432 189 438 b 19 213 19 438 19 247 b 57 39 19 143 29 82 b 140 -10 74 13 108 -10 b 225 56 196 -10 217 36 b 236 0 226 32 229 17 l 350 0 b 333 106 333 29 333 82 z m 140 207 b 186 335 140 279 140 335 b 217 321 199 335 208 331 l 217 179 b 174 88 217 104 188 88 b 140 207 157 88 140 88 z "},"b":{"ha":403,"x_min":0,"x_max":0,"o":"m 44 0 l 125 0 l 142 56 b 235 -6 157 15 189 -6 b 374 342 329 -6 374 75 b 249 692 374 606 333 692 b 168 639 228 692 194 686 l 168 926 l 44 926 z m 168 528 b 200 592 168 546 168 592 b 236 538 228 592 233 558 b 244 347 242 497 244 399 b 238 147 244 319 243 188 b 203 90 235 131 231 90 b 168 196 174 90 168 126 z "},"c":{"ha":356,"x_min":0,"x_max":0,"o":"m 238 218 b 197 88 235 147 231 88 b 169 117 181 88 172 104 b 158 344 158 164 158 289 b 161 521 158 392 158 475 b 197 597 164 556 167 597 b 233 475 221 597 232 578 l 349 483 b 197 694 347 536 343 694 b 29 347 71 694 29 574 b 196 -10 29 82 71 -10 b 351 213 342 -10 347 114 z "},"d":{"ha":403,"x_min":0,"x_max":0,"o":"m 357 0 l 357 926 l 233 926 l 233 642 b 163 692 226 654 208 692 b 29 343 49 692 29 524 b 160 -7 29 74 75 -7 b 246 67 225 -7 240 46 l 246 0 z m 233 189 b 200 93 233 156 233 93 b 164 161 171 93 165 143 b 158 340 158 206 158 294 b 201 593 158 563 172 593 b 233 525 219 593 233 569 z "},"e":{"ha":379,"x_min":0,"x_max":0,"o":"m 247 193 b 201 88 246 149 243 88 b 158 151 165 88 161 133 b 153 311 153 194 153 269 l 367 311 b 354 533 367 419 363 485 b 203 694 346 599 308 694 b 29 329 31 694 29 436 b 206 -10 29 54 92 -10 b 356 181 313 -10 349 78 z m 153 413 b 199 597 156 529 157 597 b 244 413 240 597 242 543 z "},"f":{"ha":260,"x_min":0,"x_max":0,"o":"m 192 0 l 192 575 l 260 575 l 260 685 l 189 685 l 189 768 b 235 835 189 804 189 835 b 278 831 244 835 249 835 l 278 926 b 194 943 253 935 229 943 b 72 775 72 943 72 831 l 72 685 l 17 685 l 17 575 l 68 575 l 68 0 z "},"g":{"ha":379,"x_min":0,"x_max":0,"o":"m 368 768 b 342 771 361 769 353 771 b 249 678 257 771 250 696 b 192 690 231 686 211 690 b 40 468 64 690 40 546 b 96 288 40 438 43 342 b 28 157 78 272 28 236 b 93 44 28 96 61 60 b 14 -96 65 26 14 -7 b 200 -251 14 -189 86 -251 b 399 -46 360 -251 399 -132 b 228 139 399 107 293 129 b 122 196 158 149 122 153 b 156 246 122 224 139 238 b 199 238 172 240 179 238 b 358 458 308 238 358 339 b 308 633 358 476 358 575 b 368 681 308 649 308 694 z m 161 463 b 199 593 164 565 164 593 b 229 563 222 593 228 568 b 235 463 232 544 235 525 b 222 347 235 396 232 364 b 197 332 217 336 208 332 b 167 367 172 332 167 361 b 161 463 161 399 161 431 z m 168 24 b 229 15 178 22 219 17 b 288 -68 285 3 288 -46 b 203 -158 288 -131 247 -158 b 115 -78 156 -158 115 -129 b 168 24 115 -49 128 -6 z "},"h":{"ha":403,"x_min":0,"x_max":0,"o":"m 363 0 l 363 524 b 347 643 363 576 363 613 b 263 694 326 686 285 694 b 168 624 244 694 192 690 l 168 926 l 44 926 l 44 0 l 168 0 l 168 542 b 207 590 172 572 186 590 b 239 524 235 590 239 563 l 239 0 z "},"i":{"ha":213,"x_min":0,"x_max":0,"o":"m 168 0 l 168 685 l 44 685 l 44 0 z m 168 794 l 168 926 l 44 926 l 44 794 z "},"j":{"ha":213,"x_min":0,"x_max":0,"o":"m -33 -232 b 13 -237 -22 -236 -8 -237 b 168 -51 168 -237 168 -128 l 168 685 l 44 685 l 44 -57 b -33 -135 44 -140 29 -139 z m 168 794 l 168 926 l 44 926 l 44 794 z "},"k":{"ha":379,"x_min":0,"x_max":0,"o":"m 390 0 l 258 419 l 371 685 l 258 685 l 168 435 l 168 926 l 44 926 l 44 0 l 168 0 l 168 258 l 183 310 l 274 0 z "},"l":{"ha":213,"x_min":0,"x_max":0,"o":"m 168 0 l 168 926 l 44 926 l 44 0 z "},"m":{"ha":592,"x_min":0,"x_max":0,"o":"m 550 0 l 550 539 b 451 694 550 594 551 694 b 350 613 407 694 368 671 b 257 694 346 631 329 694 b 149 596 179 694 157 626 l 149 685 l 44 685 l 44 0 l 168 0 l 168 519 b 207 593 169 542 174 593 b 238 510 238 593 238 556 l 238 0 l 357 0 l 357 529 b 397 593 361 585 385 593 b 426 517 428 593 426 554 l 426 0 z "},"n":{"ha":403,"x_min":0,"x_max":0,"o":"m 361 0 l 361 521 b 261 694 361 594 361 694 b 150 596 178 694 156 618 l 150 685 l 44 685 l 44 0 l 169 0 l 169 532 b 208 590 174 576 190 590 b 238 507 238 590 238 556 l 238 0 z "},"o":{"ha":403,"x_min":0,"x_max":0,"o":"m 201 694 b 29 344 81 694 29 611 b 201 -10 29 76 74 -10 b 374 344 331 -10 374 79 b 201 694 374 614 319 694 z m 158 354 b 164 554 158 396 158 522 b 200 597 167 569 174 597 b 238 546 228 597 235 567 b 244 364 244 504 244 410 b 236 121 244 315 244 163 b 203 88 235 114 228 88 b 165 150 176 88 169 115 b 158 354 158 194 158 304 z "},"p":{"ha":403,"x_min":0,"x_max":0,"o":"m 44 -244 l 168 -244 l 168 32 b 250 -8 188 6 218 -8 b 374 332 347 -8 374 104 b 249 692 374 489 365 692 b 156 608 186 692 164 629 l 156 685 l 44 685 z m 168 529 b 201 592 168 585 193 592 b 238 528 231 592 235 551 b 244 335 244 476 244 389 b 236 135 244 286 244 178 b 204 90 233 115 226 90 b 168 142 174 90 168 124 z "},"q":{"ha":403,"x_min":0,"x_max":0,"o":"m 357 -244 l 357 682 l 290 682 l 267 624 b 171 690 243 683 193 690 b 29 338 63 690 29 549 b 161 -6 29 90 67 -6 b 233 33 192 -6 218 4 l 233 -244 z m 233 150 b 197 93 233 108 213 93 b 158 332 167 93 158 133 b 168 538 158 383 158 476 b 201 593 171 556 176 593 b 233 526 231 593 233 536 z "},"r":{"ha":283,"x_min":0,"x_max":0,"o":"m 168 0 l 168 419 b 285 563 168 471 168 579 l 285 692 b 261 694 276 693 269 694 b 157 596 207 694 172 653 l 157 685 l 44 685 l 44 0 z "},"s":{"ha":331,"x_min":0,"x_max":0,"o":"m 11 160 b 163 -10 19 51 65 -10 b 319 178 263 -10 319 56 b 229 393 319 297 265 363 b 139 522 156 456 139 471 b 168 592 139 538 139 592 b 199 525 185 592 196 576 l 310 543 b 169 694 307 568 296 694 b 22 501 85 694 22 619 b 110 310 22 475 22 379 b 199 164 165 264 199 238 b 163 93 199 114 188 93 b 122 176 125 93 124 143 z "},"t":{"ha":260,"x_min":0,"x_max":0,"o":"m 261 103 b 224 100 251 101 236 100 b 181 182 181 100 181 125 l 181 575 l 249 575 l 249 685 l 178 685 l 178 864 l 60 854 l 60 685 l 1 685 l 1 575 l 57 575 l 57 182 b 200 -10 57 64 74 -10 b 261 0 221 -10 240 -7 z "},"u":{"ha":403,"x_min":0,"x_max":0,"o":"m 357 0 l 357 685 l 233 685 l 233 154 b 193 96 229 106 208 96 b 164 157 164 96 164 132 l 164 685 l 40 685 l 40 144 b 142 -10 40 64 50 -10 b 253 76 194 -10 233 18 l 253 0 z "},"v":{"ha":332,"x_min":0,"x_max":0,"o":"m 225 0 l 331 685 l 221 685 l 190 435 b 172 182 179 342 174 256 b 150 435 168 244 164 324 l 119 685 l 0 685 l 114 0 z "},"w":{"ha":497,"x_min":0,"x_max":0,"o":"m 396 0 l 483 685 l 390 685 l 364 426 b 346 186 356 338 349 267 b 322 435 342 221 328 394 l 296 685 l 201 685 l 178 435 b 161 186 167 313 167 310 b 142 435 158 256 156 286 l 121 685 l 10 685 l 106 0 l 201 0 l 226 242 b 246 471 229 274 246 469 b 271 240 246 465 267 278 l 301 0 z "},"x":{"ha":307,"x_min":0,"x_max":0,"o":"m 321 0 l 217 360 l 321 685 l 207 685 l 165 481 l 124 685 l 4 685 l 94 360 l -14 0 l 94 0 l 151 232 l 207 0 z "},"y":{"ha":332,"x_min":0,"x_max":0,"o":"m -8 -239 b 57 -247 6 -242 25 -247 b 214 0 175 -247 186 -174 l 329 685 l 219 685 l 185 403 b 169 229 182 379 172 271 b 156 407 168 282 161 353 l 122 685 l 0 685 l 113 44 b 35 -142 96 -142 61 -142 b -8 -133 25 -142 7 -139 z "},"z":{"ha":283,"x_min":0,"x_max":0,"o":"m 283 0 l 283 106 l 119 106 l 279 603 l 279 685 l 14 685 l 14 576 l 153 576 l 1 96 l 1 0 z "},"{":{"ha":285,"x_min":0,"x_max":0,"o":"m 279 -82 b 217 -6 217 -79 217 -36 l 217 278 b 142 399 217 351 204 390 b 217 532 217 417 217 481 l 217 807 b 279 881 217 858 228 881 l 279 981 l 225 981 b 94 828 114 981 94 925 l 94 540 b 35 457 94 486 94 457 l 35 344 b 96 258 89 344 96 319 l 96 -26 b 236 -181 96 -128 121 -181 l 279 -181 z "},"|":{"ha":694,"x_min":0,"x_max":0,"o":"m 285 1042 l 285 -347 l 408 -347 l 408 1042 z "},"}":{"ha":285,"x_min":0,"x_max":0,"o":"m 6 -181 l 49 -181 b 189 -26 168 -181 189 -122 l 189 258 b 250 344 189 321 197 344 l 250 457 b 189 540 190 457 189 486 l 190 828 b 60 981 190 935 165 981 l 6 981 l 6 881 b 68 807 61 881 68 853 l 68 532 b 143 399 68 481 68 417 b 68 278 79 390 68 349 l 68 -6 b 6 -82 68 -36 68 -79 z "},"~":{"ha":450,"x_min":0,"x_max":0,"o":"m 56 364 b 128 429 69 389 89 429 b 179 415 144 429 167 421 b 303 372 233 390 274 372 b 450 508 360 372 399 406 l 389 551 b 313 493 369 521 353 493 b 231 519 296 493 272 500 b 135 550 167 550 146 550 b 0 404 64 550 36 490 z "},"¡":{"ha":283,"x_min":0,"x_max":0,"o":"m 68 676 l 68 518 l 211 518 l 211 676 z m 92 432 l 69 -250 l 215 -250 l 193 432 z "},"¢":{"ha":450,"x_min":0,"x_max":0,"o":"m 282 -7 l 282 144 b 394 365 390 175 394 296 l 282 372 b 242 244 282 283 275 244 b 214 265 226 244 218 254 b 201 469 201 300 201 426 b 207 649 201 528 203 596 b 243 700 208 671 217 700 b 279 579 274 700 279 665 l 393 588 b 281 800 390 650 386 776 l 281 924 l 206 924 l 206 800 b 72 468 85 769 72 615 b 206 144 72 265 100 167 l 206 -7 z "},"£":{"ha":450,"x_min":0,"x_max":0,"o":"m 3 0 l 239 0 b 446 188 354 0 428 38 l 343 206 b 238 113 338 114 269 113 l 169 113 b 250 354 226 157 250 233 b 247 424 250 386 249 404 l 343 424 l 343 533 l 240 533 b 224 743 228 626 224 665 b 272 846 224 772 224 846 b 321 760 313 846 315 808 l 438 792 b 272 950 428 842 408 950 b 100 700 113 950 100 788 b 113 533 100 643 108 569 l 39 533 l 39 424 l 121 424 b 128 361 121 421 122 414 b 131 296 131 335 131 307 b 88 113 131 164 103 132 l 3 113 z "},"⁄":{"ha":118,"x_min":0,"x_max":0,"o":"m -25 0 l 232 925 l 154 925 l -103 0 z "},"¥":{"ha":450,"x_min":0,"x_max":0,"o":"m 285 0 l 285 336 l 415 336 l 415 419 l 292 419 l 311 485 l 415 485 l 415 565 l 333 565 l 433 924 l 310 924 l 228 511 l 150 925 l 17 925 l 111 565 l 35 565 l 35 485 l 132 485 l 149 419 l 35 419 l 35 336 l 163 336 l 163 0 z "},"ƒ":{"ha":450,"x_min":0,"x_max":0,"o":"m -12 -192 b 78 -203 21 -200 63 -203 b 222 57 196 -203 207 -96 l 268 508 l 350 508 l 365 617 l 279 617 l 290 719 b 354 822 299 794 313 822 b 374 819 365 822 371 821 l 390 933 b 342 938 381 935 365 938 b 175 743 196 938 181 796 l 161 617 l 103 617 l 89 508 l 153 508 l 108 64 b 32 -87 96 -74 76 -87 b 1 -82 17 -87 8 -85 z "},"§":{"ha":450,"x_min":0,"x_max":0,"o":"m 58 46 b 221 -136 60 -19 81 -136 b 378 69 346 -136 378 -25 b 329 243 378 131 364 192 b 390 404 346 258 390 303 b 289 621 390 525 335 579 b 206 757 240 665 206 706 b 243 843 206 796 210 843 b 285 763 272 843 283 811 l 392 776 b 242 938 389 803 376 938 b 89 740 135 938 89 832 b 147 565 89 647 124 597 b 79 404 94 526 79 463 b 189 186 79 278 140 228 b 257 51 235 149 257 119 b 213 -39 257 -29 235 -39 b 167 58 168 -39 167 15 z m 190 421 b 224 500 190 451 199 486 b 275 389 236 490 275 456 b 249 310 275 363 267 331 b 190 421 236 318 190 353 z "},"¤":{"ha":450,"x_min":0,"x_max":0,"o":"m 368 385 b 389 463 378 401 389 424 b 369 540 389 501 378 524 l 429 600 l 363 667 l 303 607 b 225 626 288 614 264 626 b 147 607 186 626 163 614 l 88 667 l 21 600 l 82 540 b 61 463 72 524 61 501 b 82 385 61 424 74 400 l 21 325 l 88 258 l 147 319 b 225 299 164 310 188 299 b 303 318 264 299 286 311 l 363 258 l 429 325 z m 225 394 b 157 463 189 394 157 424 b 225 531 157 501 189 531 b 293 463 263 531 293 501 b 225 394 293 424 261 394 z "},"'":{"ha":260,"x_min":0,"x_max":0,"o":"m 179 514 l 190 926 l 71 926 l 83 514 z "},"“":{"ha":450,"x_min":0,"x_max":0,"o":"m 310 926 l 253 756 l 253 610 l 388 610 l 388 764 l 333 764 l 374 925 z m 119 926 l 63 756 l 63 610 l 197 610 l 197 764 l 143 764 l 183 925 z "},"«":{"ha":403,"x_min":0,"x_max":0,"o":"m 354 163 l 289 361 l 354 553 l 264 553 l 179 361 l 265 163 z m 189 163 l 124 361 l 188 553 l 99 553 l 14 361 l 99 163 z "},"‹":{"ha":236,"x_min":0,"x_max":0,"o":"m 189 163 l 124 361 l 188 553 l 99 553 l 14 361 l 99 163 z "},"›":{"ha":236,"x_min":0,"x_max":0,"o":"m 139 163 l 222 354 l 138 553 l 49 553 l 113 354 l 49 163 z "},"ﬁ":{"ha":474,"x_min":0,"x_max":0,"o":"m 192 0 l 192 575 l 253 575 l 253 685 l 189 685 l 189 768 b 228 835 189 803 189 835 b 261 831 236 835 247 833 l 261 926 b 186 943 246 933 219 943 b 72 775 72 943 72 829 l 72 685 l 17 685 l 17 575 l 68 575 l 68 0 z m 429 0 l 429 685 l 306 685 l 306 0 z m 425 794 l 425 926 l 310 926 l 310 794 z "},"ﬂ":{"ha":474,"x_min":0,"x_max":0,"o":"m 429 0 l 429 926 l 306 926 l 306 0 z m 192 0 l 192 575 l 253 575 l 253 685 l 189 685 l 189 768 b 228 835 189 803 189 835 b 261 831 235 835 247 833 l 261 926 b 186 943 246 933 219 943 b 72 775 72 943 72 829 l 72 685 l 17 685 l 17 575 l 68 575 l 68 0 z "},"–":{"ha":426,"x_min":0,"x_max":0,"o":"m 379 304 l 379 411 l 47 411 l 47 304 z "},"†":{"ha":450,"x_min":0,"x_max":0,"o":"m 283 -144 l 283 546 l 385 546 l 385 658 l 283 658 l 283 926 l 165 926 l 165 658 l 64 658 l 64 546 l 165 546 l 165 -144 z "},"‡":{"ha":450,"x_min":0,"x_max":0,"o":"m 283 -144 l 283 124 l 385 124 l 385 236 l 283 236 l 283 546 l 385 546 l 385 658 l 283 658 l 283 926 l 165 926 l 165 658 l 64 658 l 64 546 l 165 546 l 165 236 l 64 236 l 64 124 l 165 124 l 165 -144 z "},"·":{"ha":260,"x_min":0,"x_max":0,"o":"m 204 376 l 204 544 l 57 544 l 57 376 z "},"¶":{"ha":521,"x_min":0,"x_max":0,"o":"m 478 926 l 247 926 b 92 888 210 926 138 926 b 10 658 43 846 10 763 b 86 431 10 601 21 492 b 243 389 131 392 186 388 l 243 -232 l 329 -232 l 329 833 l 392 833 l 392 -232 l 478 -232 z "},"•":{"ha":156,"x_min":0,"x_max":0,"o":"m 156 388 l 156 565 l 0 565 l 0 388 z "},"‚":{"ha":260,"x_min":0,"x_max":0,"o":"m 140 -162 l 197 8 l 197 154 l 63 154 l 63 0 l 117 0 l 76 -161 z "},"„":{"ha":450,"x_min":0,"x_max":0,"o":"m 140 -162 l 197 8 l 197 154 l 63 154 l 63 0 l 117 0 l 76 -161 z m 331 -162 l 388 8 l 388 154 l 253 154 l 253 0 l 307 0 l 267 -161 z "},"”":{"ha":450,"x_min":0,"x_max":0,"o":"m 140 610 l 197 781 l 197 926 l 63 926 l 63 772 l 117 772 l 76 611 z m 331 610 l 388 781 l 388 926 l 253 926 l 253 772 l 307 772 l 267 611 z "},"»":{"ha":403,"x_min":0,"x_max":0,"o":"m 139 163 l 222 354 l 138 553 l 49 553 l 113 354 l 49 163 z m 304 163 l 389 354 l 303 553 l 214 553 l 278 354 l 214 163 z "},"…":{"ha":781,"x_min":0,"x_max":0,"o":"m 204 0 l 204 168 l 57 168 l 57 0 z m 464 0 l 464 168 l 317 168 l 317 0 z m 724 0 l 724 168 l 576 168 l 576 0 z "},"‰":{"ha":1113,"x_min":0,"x_max":0,"o":"m 29 644 b 165 364 29 467 46 364 b 303 649 269 364 303 436 b 165 933 303 814 289 933 b 29 644 39 933 29 804 z m 132 654 b 138 824 132 696 132 789 b 165 860 142 843 147 860 b 194 825 186 860 192 842 b 200 667 200 788 200 701 b 196 479 200 622 200 513 b 167 440 192 453 185 440 b 136 478 146 440 140 454 b 132 654 132 513 132 614 z m 483 925 l 226 0 l 296 0 l 551 925 z m 479 274 b 615 -7 479 94 496 -7 b 751 274 717 -7 751 64 b 615 563 751 439 739 563 b 479 274 489 563 479 432 z m 582 283 b 588 453 582 322 582 418 b 615 489 590 472 596 489 b 643 454 635 489 640 471 b 649 294 649 417 649 322 b 644 108 649 256 649 142 b 615 69 640 82 633 69 b 586 108 596 69 590 82 b 582 283 582 142 582 244 z m 810 274 b 946 -7 810 94 826 -7 b 1083 274 1047 -7 1083 63 b 946 563 1083 442 1071 563 b 810 274 818 563 810 431 z m 913 283 b 946 489 913 460 917 489 b 975 454 967 489 972 471 b 981 283 981 417 981 329 b 974 93 981 243 981 124 b 946 69 968 72 956 69 b 917 108 928 69 921 82 b 913 283 913 143 913 243 z "},"¿":{"ha":426,"x_min":0,"x_max":0,"o":"m 168 676 l 168 525 l 303 525 l 303 676 z m 179 432 l 179 342 b 126 214 179 275 174 264 b 40 -40 42 122 40 0 b 215 -261 40 -144 72 -261 b 396 -26 383 -261 392 -103 l 276 -14 b 219 -151 275 -96 263 -151 b 174 -29 176 -151 174 -101 b 231 143 174 64 185 90 b 297 346 286 210 297 232 l 297 432 z "},"`":{"ha":426,"x_min":0,"x_max":0,"o":"m 232 750 l 278 799 l 146 940 l 88 871 z "},"´":{"ha":426,"x_min":0,"x_max":0,"o":"m 194 750 l 339 871 l 279 940 l 149 799 z "},"ˆ":{"ha":426,"x_min":0,"x_max":0,"o":"m 313 767 l 363 817 l 213 926 l 64 817 l 114 767 l 213 833 z "},"˜":{"ha":426,"x_min":0,"x_max":0,"o":"m 119 779 b 161 813 131 800 142 813 b 192 800 174 813 182 808 b 265 765 242 767 244 765 b 356 851 317 765 346 825 l 310 885 b 271 853 303 869 292 853 b 228 872 260 853 250 857 b 165 899 197 894 181 899 b 71 811 111 899 79 832 z "},"¯":{"ha":426,"x_min":0,"x_max":0,"o":"m 325 786 l 325 867 l 100 867 l 100 786 z "},"˘":{"ha":426,"x_min":0,"x_max":0,"o":"m 96 904 b 213 771 99 835 133 771 b 329 904 275 771 325 811 l 281 904 b 210 861 269 861 239 861 b 144 904 196 861 151 861 z "},"˙":{"ha":426,"x_min":0,"x_max":0,"o":"m 142 836 b 214 765 142 799 169 765 b 285 836 261 765 285 806 b 214 906 285 867 261 906 b 142 836 168 906 142 871 z "},"¨":{"ha":426,"x_min":0,"x_max":0,"o":"m 60 836 b 125 771 60 804 85 771 b 190 836 168 771 190 808 b 125 900 190 869 161 900 b 60 836 86 900 60 868 z m 236 836 b 301 771 236 804 261 771 b 367 836 344 771 367 808 b 301 900 367 868 339 900 b 236 836 263 900 236 868 z "},"˚":{"ha":426,"x_min":0,"x_max":0,"o":"m 96 867 b 213 750 96 804 143 750 b 329 867 283 750 329 807 b 213 983 329 931 278 983 b 96 867 151 983 96 936 z m 165 867 b 214 917 165 890 179 917 b 261 868 243 917 261 896 b 214 819 261 835 238 819 b 165 867 185 819 165 840 z "},"¸":{"ha":426,"x_min":0,"x_max":0,"o":"m 138 -218 b 211 -243 160 -235 185 -243 b 318 -136 265 -243 318 -211 b 231 -42 318 -47 247 -42 l 243 3 l 193 3 l 169 -93 b 246 -136 197 -90 246 -86 b 204 -176 246 -171 221 -176 b 150 -161 179 -176 160 -167 z "},"˝":{"ha":426,"x_min":0,"x_max":0,"o":"m 160 757 l 276 857 l 218 924 l 114 810 z m 314 750 l 428 850 l 372 917 l 265 801 z "},"˛":{"ha":426,"x_min":0,"x_max":0,"o":"m 446 -142 b 392 -157 426 -156 401 -157 b 335 -92 365 -157 335 -146 b 381 0 335 -46 361 -14 l 314 0 b 256 -111 272 -29 256 -74 b 376 -224 256 -182 311 -224 b 458 -194 385 -224 425 -224 z "},"ˇ":{"ha":426,"x_min":0,"x_max":0,"o":"m 213 758 l 363 867 l 314 917 l 213 851 l 113 917 l 64 867 z "},"—":{"ha":615,"x_min":0,"x_max":0,"o":"m 564 304 l 564 411 l 51 411 l 51 304 z "},"Æ":{"ha":592,"x_min":0,"x_max":0,"o":"m 576 0 l 576 118 l 389 118 l 389 425 l 517 425 l 517 543 l 389 543 l 389 808 l 565 808 l 565 926 l 201 926 l -72 0 l 61 0 l 132 271 l 254 271 l 254 0 z m 158 388 l 256 819 b 254 588 254 672 254 656 l 254 388 z "},"ª":{"ha":450,"x_min":0,"x_max":0,"o":"m 344 792 b 324 888 344 825 344 860 b 224 938 315 901 286 938 b 136 908 181 938 154 924 b 94 815 103 878 97 835 l 190 807 b 219 864 192 839 193 864 b 253 792 253 864 253 836 l 253 767 b 208 774 240 771 229 774 b 86 624 89 774 86 657 b 185 481 86 513 144 481 b 257 528 200 481 236 481 b 274 486 258 521 260 503 l 361 486 b 344 558 351 500 344 508 z m 249 589 b 213 553 249 582 242 553 b 185 624 188 553 185 575 b 224 699 185 671 185 699 b 249 693 236 699 242 696 z "},"Ł":{"ha":354,"x_min":0,"x_max":0,"o":"m 374 0 l 374 118 l 200 118 l 200 422 l 297 519 l 297 639 l 200 542 l 200 926 l 61 926 l 61 438 l 7 383 l 7 264 l 61 318 l 61 0 z "},"Ø":{"ha":497,"x_min":0,"x_max":0,"o":"m 132 -92 l 160 10 b 247 -11 174 1 199 -11 b 379 46 319 -11 361 25 b 458 463 451 126 458 346 b 393 863 458 578 451 772 l 432 1015 l 361 1015 l 333 917 b 246 938 294 938 260 938 b 38 463 56 938 38 722 b 72 122 38 289 50 200 b 103 61 81 92 93 75 l 60 -92 z m 183 239 b 179 436 181 286 179 332 b 192 767 179 506 181 711 b 246 822 197 792 207 822 b 294 782 283 822 290 796 z m 311 694 b 315 443 314 632 315 574 b 301 160 315 418 315 222 b 249 104 297 136 288 104 b 200 150 211 104 204 133 z "},"Œ":{"ha":639,"x_min":0,"x_max":0,"o":"m 624 0 l 624 118 l 449 118 l 449 426 l 567 426 l 567 544 l 449 544 l 449 808 l 613 808 l 613 926 l 317 926 b 235 938 276 935 261 938 b 101 872 210 938 149 935 b 38 463 53 808 38 742 b 219 -11 38 97 81 -11 b 319 0 257 -11 293 -4 z m 315 131 b 256 99 304 107 275 99 b 196 171 206 99 199 150 b 186 463 186 250 186 439 b 194 763 186 525 186 707 b 253 828 197 786 206 828 b 315 751 297 828 311 793 z "},"º":{"ha":450,"x_min":0,"x_max":0,"o":"m 90 703 b 224 469 90 581 100 469 b 358 703 322 469 358 533 b 224 938 358 874 322 938 b 90 703 100 938 90 826 z m 197 711 b 206 851 197 835 200 840 b 224 864 208 858 215 864 b 249 815 243 864 247 839 b 251 689 250 786 251 757 b 225 543 251 550 244 543 b 203 579 211 543 206 556 b 197 711 197 611 197 676 z "},"æ":{"ha":568,"x_min":0,"x_max":0,"o":"m 433 194 b 389 90 431 143 426 90 b 350 142 364 90 354 106 b 344 313 344 182 344 269 l 556 313 b 389 694 556 500 551 694 b 290 654 329 694 306 671 b 186 694 279 667 256 694 b 31 517 71 694 35 590 l 147 506 b 185 594 150 553 154 594 b 215 564 203 594 213 581 b 222 413 222 532 222 492 b 165 422 203 418 188 422 b 18 207 79 422 18 357 b 160 -10 18 96 46 -10 b 269 60 204 -10 249 4 b 392 -10 283 32 304 -10 b 546 182 514 -10 535 90 z m 222 154 b 179 88 222 104 197 88 b 139 206 144 88 139 126 b 188 322 139 250 139 322 b 222 313 201 322 213 317 z m 344 414 b 350 544 344 471 346 507 b 389 599 351 560 360 599 b 433 414 413 599 433 592 z "},"ı":{"ha":213,"x_min":0,"x_max":0,"o":"m 168 0 l 168 685 l 44 685 l 44 0 z "},"ł":{"ha":260,"x_min":0,"x_max":0,"o":"m 192 0 l 192 457 l 251 526 l 251 632 l 192 564 l 192 926 l 68 926 l 68 456 l 8 388 l 8 282 l 68 350 l 68 0 z "},"ø":{"ha":403,"x_min":0,"x_max":0,"o":"m 118 -96 l 143 -1 b 201 -10 156 -6 172 -10 b 374 344 335 -10 374 89 b 350 572 374 457 365 518 b 315 646 340 610 328 628 l 350 778 l 288 778 l 261 685 b 200 694 247 690 233 694 b 29 346 43 694 29 535 b 90 32 29 108 64 64 l 54 -96 z m 156 175 b 153 354 153 238 153 333 b 160 554 153 396 153 524 b 200 597 163 567 169 597 b 232 572 221 597 226 582 z m 247 511 b 250 353 250 449 250 426 b 240 121 250 303 250 161 b 204 88 239 114 232 88 b 172 114 183 88 178 101 z "},"œ":{"ha":592,"x_min":0,"x_max":0,"o":"m 457 193 b 413 90 457 103 435 90 b 372 138 382 90 376 118 b 367 313 367 172 367 274 l 578 313 b 413 694 578 507 576 694 b 308 654 354 694 326 671 b 197 694 274 694 215 694 b 26 346 72 694 26 618 b 190 -10 26 43 76 -10 b 308 33 265 -10 292 14 b 415 -10 319 21 349 -10 b 568 181 533 -10 561 82 z m 156 353 b 197 599 156 581 161 599 b 235 554 222 599 231 576 b 243 338 243 515 243 385 b 235 125 243 283 243 172 b 199 88 228 90 211 88 b 161 149 171 88 165 117 b 156 351 156 203 156 321 z m 367 413 l 367 421 l 368 500 b 411 597 367 546 372 597 b 449 563 432 597 443 585 b 457 413 453 538 457 507 z "},"ß":{"ha":450,"x_min":0,"x_max":0,"o":"m 44 -61 l 163 -61 l 163 740 b 217 856 163 789 163 856 b 272 735 261 856 272 808 b 199 601 272 683 271 610 l 199 539 b 257 411 199 478 229 443 b 307 258 296 365 307 333 b 210 99 307 193 304 97 l 210 -14 b 339 10 286 -11 311 -7 b 439 240 404 49 439 132 b 344 474 439 335 414 408 b 301 553 307 510 301 519 b 399 749 378 575 399 665 b 224 954 399 886 328 954 b 44 740 44 954 44 779 z "},"¹":{"ha":332,"x_min":0,"x_max":0,"o":"m 290 371 l 290 442 l 224 442 l 224 933 l 153 933 b 53 839 131 892 93 856 l 51 751 b 133 797 86 764 108 776 l 133 442 l 64 442 l 64 371 z "},"¬":{"ha":450,"x_min":0,"x_max":0,"o":"m 329 335 l 417 335 l 417 590 l 33 590 l 33 503 l 329 503 z "},"µ":{"ha":403,"x_min":0,"x_max":0,"o":"m 357 0 l 357 685 l 233 685 l 233 154 b 200 96 232 136 229 96 b 164 172 164 96 164 151 l 164 685 l 40 685 l 40 -246 l 144 -246 l 144 76 b 199 -6 150 25 168 -6 b 253 76 239 -6 249 44 l 253 0 z "},"™":{"ha":568,"x_min":0,"x_max":0,"o":"m 140 851 l 197 851 l 197 926 l -7 926 l -7 851 l 51 851 l 51 399 l 140 399 z m 550 926 l 453 926 l 407 651 b 388 513 401 618 393 560 b 368 651 383 553 374 619 l 322 926 l 228 926 l 228 399 l 299 399 l 299 601 b 292 794 299 639 294 717 b 321 603 308 679 311 667 l 353 399 l 419 399 l 453 599 b 483 794 467 686 469 696 b 476 600 482 751 476 626 l 476 399 l 550 399 z "},"Ð":{"ha":497,"x_min":0,"x_max":0,"o":"m 61 0 l 215 0 b 458 463 351 0 458 44 b 396 828 458 567 453 742 b 193 926 335 924 263 926 l 61 926 l 61 519 l 8 519 l 8 425 l 61 425 z m 200 425 l 263 425 l 263 519 l 200 519 l 200 808 b 300 704 243 808 281 808 b 314 447 314 626 314 493 b 288 169 314 406 313 233 b 200 118 265 118 242 118 z "},"½":{"ha":781,"x_min":0,"x_max":0,"o":"m 290 371 l 290 442 l 224 442 l 224 933 l 153 933 b 53 839 131 892 93 856 l 51 751 b 133 797 86 763 108 775 l 133 442 l 64 442 l 64 371 z m 306 0 l 563 926 l 486 926 l 228 0 z m 735 0 l 735 78 l 578 78 b 738 407 736 261 738 382 b 717 497 738 433 732 468 b 603 561 707 519 681 561 b 471 411 471 561 471 449 l 565 406 b 599 483 567 454 568 483 b 633 399 618 483 633 476 b 478 72 633 250 488 83 l 478 0 z "},"±":{"ha":450,"x_min":0,"x_max":0,"o":"m 268 179 l 268 419 l 401 419 l 401 507 l 268 507 l 268 747 l 181 747 l 181 507 l 47 507 l 47 419 l 181 419 l 181 179 z m 401 21 l 401 108 l 47 108 l 47 21 z "},"Þ":{"ha":450,"x_min":0,"x_max":0,"o":"m 200 0 l 200 213 l 243 213 b 442 492 371 213 442 288 b 376 715 442 596 418 667 b 200 768 331 768 279 768 l 200 926 l 61 926 l 61 0 z m 200 650 l 228 650 b 296 497 267 650 296 650 b 228 339 296 351 281 339 l 200 339 z "},"¼":{"ha":781,"x_min":0,"x_max":0,"o":"m 283 371 l 283 442 l 217 442 l 217 933 l 146 933 b 46 839 124 892 86 856 l 44 751 b 126 797 79 764 101 776 l 126 442 l 57 442 l 57 371 z m 493 926 l 236 0 l 314 0 l 571 926 z m 690 0 l 690 128 l 735 128 l 735 200 l 690 200 l 690 561 l 601 561 l 458 203 l 458 128 l 601 128 l 601 0 z m 528 200 l 610 447 l 610 200 z "},"÷":{"ha":450,"x_min":0,"x_max":0,"o":"m 415 419 l 415 507 l 33 507 l 33 419 z m 271 581 l 271 710 l 178 710 l 178 581 z m 271 217 l 271 346 l 178 346 l 178 217 z "},"¦":{"ha":694,"x_min":0,"x_max":0,"o":"m 285 938 l 285 451 l 408 451 l 408 938 z m 285 243 l 285 -243 l 408 -243 l 408 243 z "},"°":{"ha":426,"x_min":0,"x_max":0,"o":"m 15 743 b 213 547 15 633 104 547 b 411 743 322 547 411 633 b 214 938 411 853 319 938 b 15 743 107 938 15 853 z m 106 743 b 214 863 106 810 154 863 b 321 743 274 863 321 810 b 214 622 321 674 271 622 b 106 743 156 622 106 675 z "},"þ":{"ha":403,"x_min":0,"x_max":0,"o":"m 44 -244 l 168 -244 l 168 32 b 247 -8 176 21 199 -8 b 374 338 346 -8 374 94 b 250 692 374 513 360 692 b 168 638 201 692 178 654 l 168 926 l 44 926 z m 168 529 b 201 592 168 575 186 592 b 238 528 229 592 235 556 b 244 328 244 472 244 394 b 236 135 244 281 244 176 b 203 90 235 124 228 90 b 168 142 199 90 168 92 z "},"¾":{"ha":781,"x_min":0,"x_max":0,"o":"m 18 489 b 154 364 26 414 67 364 b 297 525 264 364 297 440 b 228 664 297 631 249 654 b 283 789 250 678 283 700 b 160 933 283 899 229 933 b 32 817 57 933 40 863 l 126 804 b 154 860 126 822 131 860 b 181 786 172 860 181 849 b 122 697 181 707 158 697 l 101 697 l 101 621 l 122 621 b 193 524 178 621 193 593 b 153 439 193 444 174 439 b 110 507 118 439 114 478 z m 501 925 l 246 0 l 314 0 l 569 925 z m 701 0 l 701 128 l 746 128 l 746 200 l 701 200 l 701 561 l 613 561 l 469 203 l 469 128 l 613 128 l 613 0 z m 539 200 l 621 447 l 621 200 z "},"²":{"ha":332,"x_min":0,"x_max":0,"o":"m 285 371 l 285 449 l 128 449 b 288 778 286 632 288 753 b 267 869 288 804 282 839 b 153 933 256 893 231 933 b 21 782 22 933 21 822 l 115 778 b 149 856 117 825 118 856 b 183 769 168 856 183 849 b 28 443 183 618 31 447 l 28 371 z "},"®":{"ha":450,"x_min":0,"x_max":0,"o":"m 319 525 l 275 661 b 307 739 288 668 307 681 b 225 829 307 821 258 829 l 158 829 l 158 525 l 208 525 l 208 651 l 232 651 l 267 525 z m 208 782 b 257 742 247 782 257 782 b 208 699 257 699 249 699 z m 8 668 b 225 413 8 514 111 413 b 442 674 349 413 442 528 b 226 936 442 831 333 936 b 8 668 119 936 8 832 z m 69 671 b 224 878 69 778 132 878 b 382 669 315 878 382 776 b 225 472 382 565 321 472 b 69 671 149 472 69 540 z "},"−":{"ha":450,"x_min":0,"x_max":0,"o":"m 401 419 l 401 507 l 47 507 l 47 419 z "},"ð":{"ha":403,"x_min":0,"x_max":0,"o":"m 158 354 b 164 554 158 396 158 524 b 200 597 167 571 175 597 b 238 546 228 597 235 567 b 244 353 244 501 244 403 b 236 121 244 301 244 164 b 203 88 235 114 228 88 b 165 150 176 88 169 115 b 158 354 160 194 158 304 z m 408 885 l 375 942 l 238 878 b 194 942 224 900 210 921 l 121 908 b 163 843 133 890 147 868 l 35 783 l 68 726 l 194 786 b 240 678 213 754 228 718 b 182 694 215 693 203 694 b 99 660 147 694 124 682 b 29 354 64 628 29 578 b 199 -10 29 43 81 -10 b 374 340 319 -10 374 58 b 269 821 374 524 351 671 z "},"×":{"ha":450,"x_min":0,"x_max":0,"o":"m 335 226 l 410 279 l 281 463 l 410 647 l 335 700 l 225 543 l 115 700 l 40 647 l 169 463 l 40 279 l 115 226 l 225 383 z "},"³":{"ha":332,"x_min":0,"x_max":0,"o":"m 14 489 b 150 364 22 414 63 364 b 293 525 260 364 293 440 b 224 664 293 631 244 654 b 279 789 246 678 279 700 b 156 933 279 899 225 933 b 28 817 53 933 36 863 l 122 804 b 150 860 122 822 126 860 b 176 786 168 860 176 849 b 118 697 176 707 154 697 l 97 697 l 97 621 l 118 621 b 189 524 174 621 189 593 b 149 439 189 444 169 439 b 106 507 114 439 110 478 z "},"©":{"ha":869,"x_min":0,"x_max":0,"o":"m 472 333 b 443 263 465 282 464 263 b 421 283 428 263 422 276 b 408 461 408 326 408 414 b 414 617 408 522 408 579 b 440 664 418 647 424 664 b 472 586 465 664 469 619 l 568 597 b 442 747 558 701 515 747 b 301 467 331 747 301 649 b 443 179 301 281 329 179 b 568 322 550 179 563 279 z m 38 454 b 435 -17 38 171 226 -17 b 831 463 663 -17 831 197 b 438 943 831 750 632 943 b 38 454 240 943 38 753 z m 135 457 b 432 854 135 665 258 854 b 733 454 607 854 733 660 b 435 75 733 256 618 75 b 135 457 290 75 135 207 z "},"Á":{"ha":426,"x_min":0,"x_max":0,"o":"m 426 0 l 279 926 l 143 926 l 0 0 l 124 0 l 153 256 l 264 256 l 296 0 z m 163 368 l 181 532 b 196 693 186 594 188 604 b 203 786 200 736 201 760 b 231 533 206 760 225 578 l 251 368 z m 153 990 l 324 1069 l 285 1151 l 121 1049 z "},"Â":{"ha":426,"x_min":0,"x_max":0,"o":"m 426 0 l 279 926 l 143 926 l 0 0 l 124 0 l 153 256 l 264 256 l 296 0 z m 163 368 l 181 532 b 196 693 186 594 188 604 b 203 786 200 736 201 760 b 231 533 206 760 225 578 l 251 368 z m 292 992 l 342 1043 l 192 1151 l 43 1043 l 93 992 l 192 1060 z "},"Ä":{"ha":426,"x_min":0,"x_max":0,"o":"m 426 0 l 279 926 l 143 926 l 0 0 l 124 0 l 153 256 l 264 256 l 296 0 z m 163 368 l 181 532 b 196 693 186 594 188 604 b 203 786 200 736 201 760 b 231 533 206 760 225 578 l 251 368 z m 57 1061 b 125 994 57 1026 86 994 b 193 1061 169 994 193 1033 b 125 1128 193 1096 164 1128 b 57 1061 83 1128 57 1093 z m 233 1061 b 301 993 233 1026 261 993 b 369 1061 346 993 369 1033 b 301 1128 369 1094 342 1128 b 233 1061 258 1128 233 1092 z "},"À":{"ha":426,"x_min":0,"x_max":0,"o":"m 426 0 l 279 926 l 143 926 l 0 0 l 124 0 l 153 256 l 264 256 l 296 0 z m 163 368 l 181 532 b 196 693 186 594 188 604 b 203 786 200 736 201 760 b 231 533 206 760 225 578 l 251 368 z m 225 990 l 257 1049 l 93 1151 l 53 1069 z "},"Å":{"ha":426,"x_min":0,"x_max":0,"o":"m 426 0 l 279 926 l 143 926 l 0 0 l 124 0 l 153 256 l 264 256 l 296 0 z m 163 368 l 181 532 b 196 693 186 594 188 604 b 203 786 200 736 201 760 b 231 533 206 760 225 578 l 251 368 z m 96 1092 b 214 975 96 1022 151 975 b 329 1092 289 975 329 1039 b 213 1208 329 1156 279 1208 b 96 1092 151 1208 96 1161 z m 165 1090 b 214 1142 165 1114 179 1142 b 261 1093 243 1142 261 1121 b 214 1044 261 1076 253 1044 b 165 1090 186 1044 165 1065 z "},"Ã":{"ha":426,"x_min":0,"x_max":0,"o":"m 426 0 l 279 926 l 143 926 l 0 0 l 124 0 l 153 256 l 264 256 l 296 0 z m 163 368 l 181 532 b 196 693 186 594 188 604 b 203 786 200 736 201 760 b 231 533 206 760 225 578 l 251 368 z m 119 1006 b 161 1039 132 1026 142 1039 b 192 1028 174 1039 182 1035 b 265 992 242 993 243 992 b 356 1078 319 992 347 1056 l 311 1111 b 271 1079 301 1092 290 1079 b 228 1099 260 1079 250 1083 b 165 1125 197 1121 182 1125 b 71 1038 111 1125 79 1058 z "},"Ç":{"ha":426,"x_min":0,"x_max":0,"o":"m 156 -218 b 229 -243 176 -235 203 -243 b 336 -135 288 -243 336 -206 b 249 -40 336 -100 325 -42 l 258 -11 b 436 210 372 -6 419 76 l 307 226 b 250 106 299 151 292 106 b 203 151 217 106 206 138 b 183 460 183 222 183 375 b 193 729 183 553 183 660 b 246 821 199 779 208 821 b 307 689 285 821 300 779 l 436 706 b 249 938 421 865 357 938 b 38 468 89 938 38 796 b 208 -7 38 99 103 15 l 186 -92 b 264 -133 219 -89 264 -86 b 222 -176 264 -156 256 -176 b 167 -161 217 -176 196 -176 z "},"É":{"ha":403,"x_min":0,"x_max":0,"o":"m 389 0 l 389 118 l 200 118 l 200 426 l 328 426 l 328 544 l 200 544 l 200 808 l 376 808 l 376 926 l 61 926 l 61 0 z m 201 990 l 372 1069 l 333 1151 l 169 1049 z "},"Ê":{"ha":403,"x_min":0,"x_max":0,"o":"m 389 0 l 389 118 l 200 118 l 200 426 l 328 426 l 328 544 l 200 544 l 200 808 l 376 808 l 376 926 l 61 926 l 61 0 z m 313 992 l 363 1043 l 213 1151 l 64 1043 l 114 992 l 213 1060 z "},"Ë":{"ha":403,"x_min":0,"x_max":0,"o":"m 389 0 l 389 118 l 200 118 l 200 426 l 328 426 l 328 544 l 200 544 l 200 808 l 376 808 l 376 926 l 61 926 l 61 0 z m 64 1061 b 132 994 64 1026 93 994 b 200 1061 176 994 200 1033 b 132 1128 200 1096 171 1128 b 64 1061 90 1128 64 1093 z m 240 1061 b 308 993 240 1026 268 993 b 376 1061 353 993 376 1033 b 308 1128 376 1094 349 1128 b 240 1061 265 1128 240 1092 z "},"È":{"ha":403,"x_min":0,"x_max":0,"o":"m 389 0 l 389 118 l 200 118 l 200 426 l 328 426 l 328 544 l 200 544 l 200 808 l 376 808 l 376 926 l 61 926 l 61 0 z m 267 990 l 299 1049 l 135 1151 l 94 1069 z "},"Í":{"ha":260,"x_min":0,"x_max":0,"o":"m 200 0 l 200 926 l 61 926 l 61 0 z m 69 990 l 240 1069 l 201 1151 l 38 1049 z "},"Î":{"ha":260,"x_min":0,"x_max":0,"o":"m 200 0 l 200 926 l 61 926 l 61 0 z m 215 992 l 265 1043 l 115 1151 l -33 1043 l 17 992 l 115 1060 z "},"Ï":{"ha":260,"x_min":0,"x_max":0,"o":"m 200 0 l 200 926 l 61 926 l 61 0 z m -26 1061 b 42 994 -26 1026 3 994 b 110 1061 86 994 110 1033 b 42 1128 110 1096 81 1128 b -26 1061 0 1128 -26 1093 z m 150 1061 b 218 993 150 1026 178 993 b 286 1061 263 993 286 1033 b 218 1128 286 1094 258 1128 b 150 1061 175 1128 150 1092 z "},"Ì":{"ha":260,"x_min":0,"x_max":0,"o":"m 200 0 l 200 926 l 61 926 l 61 0 z m 163 990 l 194 1049 l 31 1151 l -10 1069 z "},"Ñ":{"ha":521,"x_min":0,"x_max":0,"o":"m 460 0 l 460 926 l 347 926 l 347 597 b 360 267 347 496 353 376 b 296 510 339 356 328 397 l 178 926 l 61 926 l 61 0 l 175 0 l 175 299 b 164 643 175 357 168 538 b 224 410 190 517 219 424 l 347 0 z m 154 1006 b 196 1039 167 1026 176 1039 b 226 1028 208 1039 217 1035 b 300 992 276 993 278 992 b 390 1078 354 992 382 1056 l 346 1111 b 306 1079 336 1092 325 1079 b 263 1099 294 1079 285 1083 b 200 1125 232 1121 217 1125 b 106 1038 146 1125 114 1058 z "},"Ó":{"ha":497,"x_min":0,"x_max":0,"o":"m 38 463 b 247 -11 38 190 60 -11 b 458 463 394 -11 458 104 b 247 938 458 821 394 938 b 38 463 56 938 38 725 z m 186 463 b 197 767 186 468 186 708 b 247 822 203 796 213 822 b 303 728 283 822 300 796 b 310 439 308 629 310 571 b 297 160 310 422 310 222 b 247 104 292 132 282 104 b 197 160 213 104 203 133 b 186 463 186 222 186 390 z m 201 990 l 372 1069 l 333 1151 l 169 1049 z "},"Ô":{"ha":497,"x_min":0,"x_max":0,"o":"m 38 463 b 247 -11 38 190 60 -11 b 458 463 394 -11 458 104 b 247 938 458 821 394 938 b 38 463 56 938 38 725 z m 186 463 b 197 767 186 468 186 708 b 247 822 203 796 213 822 b 303 728 283 822 300 796 b 310 439 308 629 310 571 b 297 160 310 422 310 222 b 247 104 292 132 282 104 b 197 160 213 104 203 133 b 186 463 186 222 186 390 z m 340 992 l 390 1043 l 240 1151 l 92 1043 l 142 992 l 240 1060 z "},"Ö":{"ha":497,"x_min":0,"x_max":0,"o":"m 38 463 b 247 -11 38 190 60 -11 b 458 463 394 -11 458 104 b 247 938 458 821 394 938 b 38 463 56 938 38 725 z m 186 463 b 197 767 186 468 186 708 b 247 822 203 796 213 822 b 303 728 283 822 300 796 b 310 439 308 629 310 571 b 297 160 310 422 310 222 b 247 104 292 132 282 104 b 197 160 213 104 203 133 b 186 463 186 222 186 390 z m 78 1061 b 146 994 78 1026 107 994 b 214 1061 190 994 214 1033 b 146 1128 214 1096 185 1128 b 78 1061 104 1128 78 1093 z m 254 1061 b 322 993 254 1026 282 993 b 390 1061 367 993 390 1033 b 322 1128 390 1094 363 1128 b 254 1061 279 1128 254 1092 z "},"Ò":{"ha":497,"x_min":0,"x_max":0,"o":"m 38 463 b 247 -11 38 190 60 -11 b 458 463 394 -11 458 104 b 247 938 458 821 394 938 b 38 463 56 938 38 725 z m 186 463 b 197 767 186 468 186 708 b 247 822 203 796 213 822 b 303 728 283 822 300 796 b 310 439 308 629 310 571 b 297 160 310 422 310 222 b 247 104 292 132 282 104 b 197 160 213 104 203 133 b 186 463 186 222 186 390 z m 260 990 l 292 1049 l 128 1151 l 88 1069 z "},"Õ":{"ha":497,"x_min":0,"x_max":0,"o":"m 38 463 b 247 -11 38 190 60 -11 b 458 463 394 -11 458 104 b 247 938 458 821 394 938 b 38 463 56 938 38 725 z m 186 463 b 197 767 186 468 186 708 b 247 822 203 796 213 822 b 303 728 283 822 300 796 b 310 439 308 629 310 571 b 297 160 310 422 310 222 b 247 104 292 132 282 104 b 197 160 213 104 203 133 b 186 463 186 222 186 390 z m 140 1006 b 182 1039 153 1026 163 1039 b 213 1028 194 1039 203 1035 b 286 992 263 993 264 992 b 376 1078 340 992 368 1056 l 332 1111 b 292 1079 322 1092 311 1079 b 249 1099 281 1079 271 1083 b 186 1125 218 1121 203 1125 b 92 1038 132 1125 100 1058 z "},"Š":{"ha":426,"x_min":0,"x_max":0,"o":"m 21 213 b 210 -11 21 124 49 -11 b 406 261 381 -11 406 146 b 261 547 406 408 343 476 b 169 710 185 611 169 643 b 213 821 169 778 179 821 b 261 718 232 821 251 821 l 390 735 b 211 938 383 828 344 938 b 32 697 81 938 32 826 b 147 444 32 554 113 474 b 268 236 235 371 268 342 b 208 104 268 143 249 104 b 150 226 154 104 151 168 z m 192 985 l 342 1093 l 293 1143 l 192 1076 l 92 1143 l 43 1093 z "},"Ú":{"ha":497,"x_min":0,"x_max":0,"o":"m 61 926 l 61 242 b 250 -11 61 131 64 -11 b 436 242 436 -11 436 146 l 436 926 l 299 926 l 299 229 b 247 114 299 154 299 114 b 197 229 199 114 199 149 l 197 926 z m 188 990 l 358 1069 l 319 1151 l 156 1049 z "},"Û":{"ha":497,"x_min":0,"x_max":0,"o":"m 61 926 l 61 242 b 250 -11 61 131 64 -11 b 436 242 436 -11 436 146 l 436 926 l 299 926 l 299 229 b 247 114 299 154 299 114 b 197 229 199 114 199 149 l 197 926 z m 347 992 l 397 1043 l 247 1151 l 99 1043 l 149 992 l 247 1060 z "},"Ü":{"ha":497,"x_min":0,"x_max":0,"o":"m 61 926 l 61 242 b 250 -11 61 131 64 -11 b 436 242 436 -11 436 146 l 436 926 l 299 926 l 299 229 b 247 114 299 154 299 114 b 197 229 199 114 199 149 l 197 926 z m 78 1061 b 146 994 78 1026 107 994 b 214 1061 190 994 214 1033 b 146 1128 214 1096 185 1128 b 78 1061 104 1128 78 1093 z m 254 1061 b 322 993 254 1026 282 993 b 390 1061 367 993 390 1033 b 322 1128 390 1094 363 1128 b 254 1061 279 1128 254 1092 z "},"Ù":{"ha":497,"x_min":0,"x_max":0,"o":"m 61 926 l 61 242 b 250 -11 61 131 64 -11 b 436 242 436 -11 436 146 l 436 926 l 299 926 l 299 229 b 247 114 299 154 299 114 b 197 229 199 114 199 149 l 197 926 z m 267 990 l 299 1049 l 135 1151 l 94 1069 z "},"Ý":{"ha":403,"x_min":0,"x_max":0,"o":"m 268 0 l 268 392 l 414 926 l 282 926 l 244 739 b 208 496 239 715 215 581 b 168 732 204 568 186 649 l 126 926 l -11 926 l 129 389 l 129 0 z m 229 990 l 400 1069 l 361 1151 l 197 1049 z "},"Ÿ":{"ha":403,"x_min":0,"x_max":0,"o":"m 268 0 l 268 392 l 414 926 l 282 926 l 244 739 b 208 496 239 715 215 581 b 168 732 204 568 186 649 l 126 926 l -11 926 l 129 389 l 129 0 z m 43 1061 b 111 994 43 1026 72 994 b 179 1061 156 994 179 1033 b 111 1128 179 1096 150 1128 b 43 1061 69 1128 43 1093 z m 219 1061 b 288 993 219 1026 247 993 b 356 1061 332 993 356 1033 b 288 1128 356 1094 328 1128 b 219 1061 244 1128 219 1092 z "},"Ž":{"ha":354,"x_min":0,"x_max":0,"o":"m 347 0 l 347 118 l 136 118 l 340 832 l 340 926 l 18 926 l 18 808 l 207 808 l 7 125 l 7 0 z m 157 985 l 307 1093 l 258 1143 l 157 1076 l 57 1143 l 8 1093 z "},"á":{"ha":379,"x_min":0,"x_max":0,"o":"m 333 474 b 310 621 333 524 333 578 b 186 694 297 643 264 694 b 31 517 82 694 40 608 l 136 506 b 181 594 140 556 143 594 b 221 474 218 594 221 546 l 221 422 b 164 438 199 432 189 438 b 19 213 19 438 19 247 b 57 39 19 143 29 82 b 140 -10 74 13 108 -10 b 225 56 196 -10 217 36 b 236 0 226 32 229 17 l 350 0 b 333 106 333 29 333 82 z m 140 207 b 186 335 140 279 140 335 b 217 321 199 335 208 331 l 217 179 b 174 88 217 104 188 88 b 140 207 157 88 140 88 z m 171 750 l 315 871 l 256 940 l 125 799 z "},"â":{"ha":379,"x_min":0,"x_max":0,"o":"m 333 474 b 310 621 333 524 333 578 b 186 694 297 643 264 694 b 31 517 82 694 40 608 l 136 506 b 181 594 140 556 143 594 b 221 474 218 594 221 546 l 221 422 b 164 438 199 432 189 438 b 19 213 19 438 19 247 b 57 39 19 143 29 82 b 140 -10 74 13 108 -10 b 225 56 196 -10 217 36 b 236 0 226 32 229 17 l 350 0 b 333 106 333 29 333 82 z m 140 207 b 186 335 140 279 140 335 b 217 321 199 335 208 331 l 217 179 b 174 88 217 104 188 88 b 140 207 157 88 140 88 z m 289 767 l 339 817 l 189 926 l 40 817 l 90 767 l 189 833 z "},"ä":{"ha":379,"x_min":0,"x_max":0,"o":"m 333 474 b 310 621 333 524 333 578 b 186 694 297 643 264 694 b 31 517 82 694 40 608 l 136 506 b 181 594 140 556 143 594 b 221 474 218 594 221 546 l 221 422 b 164 438 199 432 189 438 b 19 213 19 438 19 247 b 57 39 19 143 29 82 b 140 -10 74 13 108 -10 b 225 56 196 -10 217 36 b 236 0 226 32 229 17 l 350 0 b 333 106 333 29 333 82 z m 140 207 b 186 335 140 279 140 335 b 217 321 199 335 208 331 l 217 179 b 174 88 217 104 188 88 b 140 207 157 88 140 88 z m 36 836 b 101 771 36 804 61 771 b 167 836 144 771 167 808 b 101 900 167 869 138 900 b 36 836 63 900 36 868 z m 213 836 b 278 771 213 804 238 771 b 343 836 321 771 343 808 b 278 900 343 868 315 900 b 213 836 239 900 213 868 z "},"à":{"ha":379,"x_min":0,"x_max":0,"o":"m 333 474 b 310 621 333 524 333 578 b 186 694 297 643 264 694 b 31 517 82 694 40 608 l 136 506 b 181 594 140 556 143 594 b 221 474 218 594 221 546 l 221 422 b 164 438 199 432 189 438 b 19 213 19 438 19 247 b 57 39 19 143 29 82 b 140 -10 74 13 108 -10 b 225 56 196 -10 217 36 b 236 0 226 32 229 17 l 350 0 b 333 106 333 29 333 82 z m 140 207 b 186 335 140 279 140 335 b 217 321 199 335 208 331 l 217 179 b 174 88 217 104 188 88 b 140 207 157 88 140 88 z m 208 750 l 254 799 l 122 940 l 64 871 z "},"å":{"ha":379,"x_min":0,"x_max":0,"o":"m 333 474 b 310 621 333 524 333 578 b 186 694 297 643 264 694 b 31 517 82 694 40 608 l 136 506 b 181 594 140 556 143 594 b 221 474 218 594 221 546 l 221 422 b 164 438 199 432 189 438 b 19 213 19 438 19 247 b 57 39 19 143 29 82 b 140 -10 74 13 108 -10 b 225 56 196 -10 217 36 b 236 0 226 32 229 17 l 350 0 b 333 106 333 29 333 82 z m 140 207 b 186 335 140 279 140 335 b 217 321 199 335 208 331 l 217 179 b 174 88 217 104 188 88 b 140 207 157 88 140 88 z m 79 867 b 196 750 79 804 126 750 b 313 867 267 750 313 807 b 196 983 313 931 261 983 b 79 867 135 983 79 936 z m 149 867 b 197 917 149 890 163 917 b 244 868 226 917 244 896 b 197 819 244 835 221 819 b 149 867 168 819 149 840 z "},"ã":{"ha":379,"x_min":0,"x_max":0,"o":"m 333 474 b 310 621 333 524 333 578 b 186 694 297 643 264 694 b 31 517 82 694 40 608 l 136 506 b 181 594 140 556 143 594 b 221 474 218 594 221 546 l 221 422 b 164 438 199 432 189 438 b 19 213 19 438 19 247 b 57 39 19 143 29 82 b 140 -10 74 13 108 -10 b 225 56 196 -10 217 36 b 236 0 226 32 229 17 l 350 0 b 333 106 333 29 333 82 z m 140 207 b 186 335 140 279 140 335 b 217 321 199 335 208 331 l 217 179 b 174 88 217 104 188 88 b 140 207 157 88 140 88 z m 96 779 b 138 813 107 800 118 813 b 168 800 150 813 158 808 b 242 765 218 767 221 765 b 332 851 293 765 322 825 l 286 885 b 247 853 279 869 268 853 b 204 872 236 853 226 857 b 142 899 174 894 157 899 b 47 811 88 899 56 832 z "},"ç":{"ha":356,"x_min":0,"x_max":0,"o":"m 110 -218 b 182 -243 142 -243 171 -243 b 289 -133 239 -243 289 -207 b 203 -40 289 -44 217 -42 l 211 -10 b 350 213 293 -4 349 44 l 236 218 b 225 117 235 163 232 139 b 196 88 221 101 211 88 b 164 146 174 88 168 114 b 158 353 158 194 158 300 b 161 522 158 397 158 481 b 199 597 163 549 167 597 b 233 475 232 597 233 533 l 349 483 b 197 694 347 536 343 694 b 29 347 57 694 29 540 b 83 38 29 256 33 108 b 163 -7 107 4 138 -1 l 140 -92 b 217 -133 174 -89 217 -86 b 176 -176 217 -164 200 -176 b 121 -161 150 -176 131 -167 z "},"é":{"ha":379,"x_min":0,"x_max":0,"o":"m 247 193 b 201 88 246 149 243 88 b 158 151 165 88 161 133 b 153 311 153 194 153 269 l 367 311 b 354 533 367 419 363 485 b 203 694 346 599 308 694 b 29 329 31 694 29 436 b 206 -10 29 54 92 -10 b 356 181 313 -10 349 78 z m 153 413 b 199 597 156 529 157 597 b 244 413 240 597 242 543 z m 171 750 l 315 871 l 256 940 l 125 799 z "},"ê":{"ha":379,"x_min":0,"x_max":0,"o":"m 247 193 b 201 88 246 149 243 88 b 158 151 165 88 161 133 b 153 311 153 194 153 269 l 367 311 b 354 533 367 419 363 485 b 203 694 346 599 308 694 b 29 329 31 694 29 436 b 206 -10 29 54 92 -10 b 356 181 313 -10 349 78 z m 153 413 b 199 597 156 529 157 597 b 244 413 240 597 242 543 z m 289 767 l 339 817 l 189 926 l 40 817 l 90 767 l 189 833 z "},"ë":{"ha":379,"x_min":0,"x_max":0,"o":"m 247 193 b 201 88 246 149 243 88 b 158 151 165 88 161 133 b 153 311 153 194 153 269 l 367 311 b 354 533 367 419 363 485 b 203 694 346 599 308 694 b 29 329 31 694 29 436 b 206 -10 29 54 92 -10 b 356 181 313 -10 349 78 z m 153 413 b 199 597 156 529 157 597 b 244 413 240 597 242 543 z m 36 836 b 101 771 36 804 61 771 b 167 836 144 771 167 808 b 101 900 167 869 138 900 b 36 836 63 900 36 868 z m 213 836 b 278 771 213 804 238 771 b 343 836 321 771 343 808 b 278 900 343 868 315 900 b 213 836 239 900 213 868 z "},"è":{"ha":379,"x_min":0,"x_max":0,"o":"m 247 193 b 201 88 246 149 243 88 b 158 151 165 88 161 133 b 153 311 153 194 153 269 l 367 311 b 354 533 367 419 363 485 b 203 694 346 599 308 694 b 29 329 31 694 29 436 b 206 -10 29 54 92 -10 b 356 181 313 -10 349 78 z m 153 413 b 199 597 156 529 157 597 b 244 413 240 597 242 543 z m 208 750 l 254 799 l 122 940 l 64 871 z "},"í":{"ha":213,"x_min":0,"x_max":0,"o":"m 168 0 l 168 685 l 44 685 l 44 0 z m 88 750 l 232 871 l 172 940 l 42 799 z "},"î":{"ha":213,"x_min":0,"x_max":0,"o":"m 168 0 l 168 685 l 44 685 l 44 0 z m 206 767 l 256 817 l 106 926 l -43 817 l 7 767 l 106 833 z "},"ï":{"ha":213,"x_min":0,"x_max":0,"o":"m 168 0 l 168 685 l 44 685 l 44 0 z m -47 836 b 18 771 -47 804 -22 771 b 83 836 61 771 83 808 b 18 900 83 869 54 900 b -47 836 -21 900 -47 868 z m 129 836 b 194 771 129 804 154 771 b 260 836 238 771 260 808 b 194 900 260 868 232 900 b 129 836 156 900 129 868 z "},"ì":{"ha":213,"x_min":0,"x_max":0,"o":"m 168 0 l 168 685 l 44 685 l 44 0 z m 125 750 l 171 799 l 39 940 l -19 871 z "},"ñ":{"ha":403,"x_min":0,"x_max":0,"o":"m 361 0 l 361 521 b 261 694 361 594 361 694 b 150 596 178 694 156 618 l 150 685 l 44 685 l 44 0 l 169 0 l 169 532 b 208 590 174 576 190 590 b 238 507 238 590 238 556 l 238 0 z m 108 779 b 150 813 119 800 131 813 b 181 800 163 813 171 808 b 254 765 231 767 233 765 b 344 851 306 765 335 825 l 299 885 b 260 853 292 869 281 853 b 217 872 249 853 239 857 b 154 899 186 894 169 899 b 60 811 100 899 68 832 z "},"ó":{"ha":403,"x_min":0,"x_max":0,"o":"m 201 694 b 29 344 81 694 29 611 b 201 -10 29 76 74 -10 b 374 344 331 -10 374 79 b 201 694 374 614 319 694 z m 158 354 b 164 554 158 396 158 522 b 200 597 167 569 174 597 b 238 546 228 597 235 567 b 244 364 244 504 244 410 b 236 121 244 315 244 163 b 203 88 235 114 228 88 b 165 150 176 88 169 115 b 158 354 158 194 158 304 z m 183 750 l 328 871 l 268 940 l 138 799 z "},"ô":{"ha":403,"x_min":0,"x_max":0,"o":"m 201 694 b 29 344 81 694 29 611 b 201 -10 29 76 74 -10 b 374 344 331 -10 374 79 b 201 694 374 614 319 694 z m 158 354 b 164 554 158 396 158 522 b 200 597 167 569 174 597 b 238 546 228 597 235 567 b 244 364 244 504 244 410 b 236 121 244 315 244 163 b 203 88 235 114 228 88 b 165 150 176 88 169 115 b 158 354 158 194 158 304 z m 301 767 l 351 817 l 201 926 l 53 817 l 103 767 l 201 833 z "},"ö":{"ha":403,"x_min":0,"x_max":0,"o":"m 201 694 b 29 344 81 694 29 611 b 201 -10 29 76 74 -10 b 374 344 331 -10 374 79 b 201 694 374 614 319 694 z m 158 354 b 164 554 158 396 158 522 b 200 597 167 569 174 597 b 238 546 228 597 235 567 b 244 364 244 504 244 410 b 236 121 244 315 244 163 b 203 88 235 114 228 88 b 165 150 176 88 169 115 b 158 354 158 194 158 304 z m 49 836 b 114 771 49 804 74 771 b 179 836 157 771 179 808 b 114 900 179 869 150 900 b 49 836 75 900 49 868 z m 225 836 b 290 771 225 804 250 771 b 356 836 333 771 356 808 b 290 900 356 868 328 900 b 225 836 251 900 225 868 z "},"ò":{"ha":403,"x_min":0,"x_max":0,"o":"m 201 694 b 29 344 81 694 29 611 b 201 -10 29 76 74 -10 b 374 344 331 -10 374 79 b 201 694 374 614 319 694 z m 158 354 b 164 554 158 396 158 522 b 200 597 167 569 174 597 b 238 546 228 597 235 567 b 244 364 244 504 244 410 b 236 121 244 315 244 163 b 203 88 235 114 228 88 b 165 150 176 88 169 115 b 158 354 158 194 158 304 z m 221 750 l 267 799 l 135 940 l 76 871 z "},"õ":{"ha":403,"x_min":0,"x_max":0,"o":"m 201 694 b 29 344 81 694 29 611 b 201 -10 29 76 74 -10 b 374 344 331 -10 374 79 b 201 694 374 614 319 694 z m 158 354 b 164 554 158 396 158 522 b 200 597 167 569 174 597 b 238 546 228 597 235 567 b 244 364 244 504 244 410 b 236 121 244 315 244 163 b 203 88 235 114 228 88 b 165 150 176 88 169 115 b 158 354 158 194 158 304 z m 108 779 b 150 813 119 800 131 813 b 181 800 163 813 171 808 b 254 765 231 767 233 765 b 344 851 306 765 335 825 l 299 885 b 260 853 292 869 281 853 b 217 872 249 853 239 857 b 154 899 186 894 169 899 b 60 811 100 899 68 832 z "},"š":{"ha":331,"x_min":0,"x_max":0,"o":"m 11 160 b 163 -10 19 51 65 -10 b 319 178 263 -10 319 56 b 229 393 319 297 265 363 b 139 522 156 456 139 471 b 168 592 139 538 139 592 b 199 525 185 592 196 576 l 310 543 b 169 694 307 568 296 694 b 22 501 85 694 22 619 b 110 310 22 475 22 379 b 199 164 165 264 199 238 b 163 93 199 114 188 93 b 122 176 125 93 124 143 z m 165 758 l 315 867 l 267 917 l 165 851 l 65 917 l 17 867 z "},"ú":{"ha":403,"x_min":0,"x_max":0,"o":"m 357 0 l 357 685 l 233 685 l 233 154 b 193 96 229 106 208 96 b 164 157 164 96 164 132 l 164 685 l 40 685 l 40 144 b 142 -10 40 64 50 -10 b 253 76 194 -10 233 18 l 253 0 z m 183 750 l 328 871 l 268 940 l 138 799 z "},"û":{"ha":403,"x_min":0,"x_max":0,"o":"m 357 0 l 357 685 l 233 685 l 233 154 b 193 96 229 106 208 96 b 164 157 164 96 164 132 l 164 685 l 40 685 l 40 144 b 142 -10 40 64 50 -10 b 253 76 194 -10 233 18 l 253 0 z m 301 767 l 351 817 l 201 926 l 53 817 l 103 767 l 201 833 z "},"ü":{"ha":403,"x_min":0,"x_max":0,"o":"m 357 0 l 357 685 l 233 685 l 233 154 b 193 96 229 106 208 96 b 164 157 164 96 164 132 l 164 685 l 40 685 l 40 144 b 142 -10 40 64 50 -10 b 253 76 194 -10 233 18 l 253 0 z m 49 836 b 114 771 49 804 74 771 b 179 836 157 771 179 808 b 114 900 179 869 150 900 b 49 836 75 900 49 868 z m 225 836 b 290 771 225 804 250 771 b 356 836 333 771 356 808 b 290 900 356 868 328 900 b 225 836 251 900 225 868 z "},"ù":{"ha":403,"x_min":0,"x_max":0,"o":"m 357 0 l 357 685 l 233 685 l 233 154 b 193 96 229 106 208 96 b 164 157 164 96 164 132 l 164 685 l 40 685 l 40 144 b 142 -10 40 64 50 -10 b 253 76 194 -10 233 18 l 253 0 z m 221 750 l 267 799 l 135 940 l 76 871 z "},"ý":{"ha":332,"x_min":0,"x_max":0,"o":"m -8 -239 b 57 -247 6 -242 25 -247 b 214 0 175 -247 186 -174 l 329 685 l 219 685 l 185 403 b 169 229 182 379 172 271 b 156 407 168 282 161 353 l 122 685 l 0 685 l 113 44 b 35 -142 96 -142 61 -142 b -8 -133 25 -142 7 -139 z m 147 750 l 292 871 l 232 940 l 101 799 z "},"ÿ":{"ha":332,"x_min":0,"x_max":0,"o":"m -8 -239 b 57 -247 6 -242 25 -247 b 214 0 175 -247 186 -174 l 329 685 l 219 685 l 185 403 b 169 229 182 379 172 271 b 156 407 168 282 161 353 l 122 685 l 0 685 l 113 44 b 35 -142 96 -142 61 -142 b -8 -133 25 -142 7 -139 z m 13 836 b 78 771 13 804 38 771 b 143 836 121 771 143 808 b 78 900 143 869 114 900 b 13 836 39 900 13 868 z m 189 836 b 254 771 189 804 214 771 b 319 836 297 771 319 808 b 254 900 319 868 292 900 b 189 836 215 900 189 868 z "},"ž":{"ha":283,"x_min":0,"x_max":0,"o":"m 283 0 l 283 106 l 119 106 l 279 603 l 279 685 l 14 685 l 14 576 l 153 576 l 1 96 l 1 0 z m 142 758 l 292 867 l 243 917 l 142 851 l 42 917 l -7 867 z "},"€":{"ha":450,"x_min":0,"x_max":0,"o":"m 413 911 b 301 938 397 924 360 938 b 93 608 179 938 108 835 l 44 608 l 22 511 l 86 511 b 85 465 85 496 85 478 b 86 421 85 451 85 432 l 44 421 l 22 324 l 94 324 b 300 -10 111 82 183 -10 b 413 13 363 -10 397 0 l 413 131 b 325 103 396 113 372 103 b 217 324 261 103 222 164 l 314 324 l 336 421 l 211 421 b 211 465 211 435 211 451 b 211 511 211 478 211 497 l 358 511 l 382 608 l 217 608 b 325 824 222 754 256 824 b 413 796 371 824 396 813 z "}}}
